<svg xmlns="http://www.w3.org/2000/svg" xmlns:xlink="http://www.w3.org/1999/xlink" width="1366" zoomAndPan="magnify" viewBox="0 0 1024.5 576" height="768" preserveAspectRatio="xMidYMid meet" version="1.0"><defs><g/><clipPath id="ed8cf2367a"><path d="M 0 0.140625 L 1024 0.140625 L 1024 575.859375 L 0 575.859375 Z M 0 0.140625 " clip-rule="nonzero"/></clipPath><clipPath id="b1f08ff6e0"><path d="M 32.832031 115.613281 L 378 115.613281 L 378 460.386719 L 32.832031 460.386719 Z M 32.832031 115.613281 " clip-rule="nonzero"/></clipPath><clipPath id="d42762cff1"><path d="M 44.46875 115.613281 L 366.246094 115.613281 C 369.332031 115.613281 372.292969 116.839844 374.476562 119.023438 C 376.65625 121.207031 377.882812 124.164062 377.882812 127.25 L 377.882812 448.75 C 377.882812 451.835938 376.65625 454.792969 374.476562 456.976562 C 372.292969 459.160156 369.332031 460.386719 366.246094 460.386719 L 44.46875 460.386719 C 41.382812 460.386719 38.425781 459.160156 36.242188 456.976562 C 34.058594 454.792969 32.832031 451.835938 32.832031 448.75 L 32.832031 127.25 C 32.832031 124.164062 34.058594 121.207031 36.242188 119.023438 C 38.425781 116.839844 41.382812 115.613281 44.46875 115.613281 Z M 44.46875 115.613281 " clip-rule="nonzero"/></clipPath></defs><g clip-path="url(#ed8cf2367a)"><path fill="#ffffff" d="M 0 0.140625 L 1024 0.140625 L 1024 575.859375 L 0 575.859375 Z M 0 0.140625 " fill-opacity="1" fill-rule="nonzero"/><path fill="#ffffff" d="M 0 0.140625 L 1024 0.140625 L 1024 575.859375 L 0 575.859375 Z M 0 0.140625 " fill-opacity="1" fill-rule="nonzero"/></g><g clip-path="url(#b1f08ff6e0)"><g clip-path="url(#d42762cff1)"><path fill="#316bff" d="M 32.832031 115.613281 L 377.605469 115.613281 L 377.605469 460.386719 L 32.832031 460.386719 Z M 32.832031 115.613281 " fill-opacity="1" fill-rule="nonzero"/></g></g><g fill="#213856" fill-opacity="1"><g transform="translate(391.208746, 392.757828)"><g><path d="M 28.4375 -123.5 C 28.625 -129.695312 28.835938 -136.101562 29.078125 -142.71875 C 29.316406 -149.332031 29.4375 -156.253906 29.4375 -163.484375 L 50.40625 -168.140625 C 49.5625 -162.035156 48.832031 -155.15625 48.21875 -147.5 C 47.613281 -139.851562 47.03125 -131.851562 46.46875 -123.5 C 55.757812 -123.5 63.664062 -123.78125 70.1875 -124.34375 C 76.71875 -124.90625 82.140625 -125.5625 86.453125 -126.3125 L 80.125 -112.796875 L 70.96875 -112.796875 C 66.46875 -112.796875 62.195312 -112.796875 58.15625 -112.796875 C 54.125 -112.796875 49.898438 -112.890625 45.484375 -113.078125 C 45.015625 -106.785156 44.59375 -100.5625 44.21875 -94.40625 C 43.84375 -88.257812 43.515625 -82.347656 43.234375 -76.671875 C 42.953125 -70.992188 42.738281 -65.664062 42.59375 -60.6875 C 42.457031 -55.71875 42.390625 -51.351562 42.390625 -47.59375 C 42.390625 -41.488281 42.691406 -36.320312 43.296875 -32.09375 C 43.910156 -27.875 44.921875 -24.453125 46.328125 -21.828125 C 47.734375 -19.203125 49.609375 -17.300781 51.953125 -16.125 C 54.304688 -14.945312 57.265625 -14.359375 60.828125 -14.359375 C 64.867188 -14.359375 69.1875 -15.554688 73.78125 -17.953125 C 78.382812 -20.347656 82.421875 -23.796875 85.890625 -28.296875 L 90.546875 -23.09375 C 87.441406 -19.4375 84.25 -16.035156 80.96875 -12.890625 C 77.6875 -9.742188 74.285156 -7.019531 70.765625 -4.71875 C 67.242188 -2.414062 63.648438 -0.585938 59.984375 0.765625 C 56.328125 2.128906 52.570312 2.8125 48.71875 2.8125 C 43.65625 2.8125 39.503906 1.894531 36.265625 0.0625 C 33.023438 -1.757812 30.460938 -4.265625 28.578125 -7.453125 C 26.703125 -10.648438 25.410156 -14.40625 24.703125 -18.71875 C 24.003906 -23.039062 23.65625 -27.738281 23.65625 -32.8125 C 23.65625 -42.570312 24.171875 -54.140625 25.203125 -67.515625 C 26.234375 -80.898438 27.21875 -96.367188 28.15625 -113.921875 C 24.21875 -114.203125 20.273438 -114.550781 16.328125 -114.96875 C 12.390625 -115.394531 8.117188 -115.984375 3.515625 -116.734375 L 4.078125 -123.5 Z M 28.4375 -123.5 "/></g></g></g><g fill="#213856" fill-opacity="1"><g transform="translate(484.985367, 392.757828)"><g><path d="M 73.5 -118.28125 C 66.550781 -118.28125 60.398438 -116.726562 55.046875 -113.625 C 49.703125 -110.53125 45.222656 -106.398438 41.609375 -101.234375 C 37.992188 -96.078125 35.25 -90.140625 33.375 -83.421875 C 31.5 -76.710938 30.5625 -69.742188 30.5625 -62.515625 C 30.5625 -55.671875 31.40625 -48.867188 33.09375 -42.109375 C 34.78125 -35.347656 37.382812 -29.265625 40.90625 -23.859375 C 44.425781 -18.460938 48.929688 -14.097656 54.421875 -10.765625 C 59.910156 -7.441406 66.457031 -5.78125 74.0625 -5.78125 C 80.820312 -5.78125 86.832031 -7.046875 92.09375 -9.578125 C 97.351562 -12.109375 101.8125 -15.71875 105.46875 -20.40625 C 109.132812 -25.101562 111.925781 -30.832031 113.84375 -37.59375 C 115.769531 -44.351562 116.734375 -51.910156 116.734375 -60.265625 C 116.734375 -66.460938 115.890625 -72.960938 114.203125 -79.765625 C 112.515625 -86.578125 109.910156 -92.84375 106.390625 -98.5625 C 102.867188 -104.289062 98.382812 -109.007812 92.9375 -112.71875 C 87.488281 -116.425781 81.007812 -118.28125 73.5 -118.28125 Z M 9.859375 -55.0625 C 9.859375 -63.976562 11.453125 -72.707031 14.640625 -81.25 C 17.835938 -89.789062 22.4375 -97.394531 28.4375 -104.0625 C 34.445312 -110.726562 41.769531 -116.101562 50.40625 -120.1875 C 59.039062 -124.269531 68.851562 -126.3125 79.84375 -126.3125 C 90.257812 -126.3125 99.128906 -124.851562 106.453125 -121.9375 C 113.773438 -119.03125 119.734375 -115.066406 124.328125 -110.046875 C 128.929688 -105.023438 132.289062 -99.179688 134.40625 -92.515625 C 136.519531 -85.847656 137.578125 -78.757812 137.578125 -71.25 C 137.578125 -61.113281 135.789062 -51.539062 132.21875 -42.53125 C 128.65625 -33.519531 123.726562 -25.65625 117.4375 -18.9375 C 111.144531 -12.226562 103.773438 -6.925781 95.328125 -3.03125 C 86.878906 0.863281 77.773438 2.8125 68.015625 2.8125 C 56.742188 2.8125 47.375 1.191406 39.90625 -2.046875 C 32.445312 -5.285156 26.488281 -9.578125 22.03125 -14.921875 C 17.570312 -20.273438 14.425781 -26.425781 12.59375 -33.375 C 10.769531 -40.320312 9.859375 -47.550781 9.859375 -55.0625 Z M 9.859375 -55.0625 "/></g></g></g><g fill="#213856" fill-opacity="1"><g transform="translate(633.535422, 392.757828)"><g><path d="M 50.96875 -126.3125 C 49.84375 -118.894531 48.859375 -111.335938 48.015625 -103.640625 C 47.171875 -95.941406 46.441406 -88.265625 45.828125 -80.609375 C 45.222656 -72.960938 44.78125 -65.40625 44.5 -57.9375 C 44.21875 -50.476562 44.078125 -43.273438 44.078125 -36.328125 C 44.078125 -29.941406 44.265625 -24.800781 44.640625 -20.90625 C 45.015625 -17.007812 45.8125 -14.003906 47.03125 -11.890625 C 48.25 -9.785156 50.054688 -8.378906 52.453125 -7.671875 C 54.847656 -6.972656 58.109375 -6.625 62.234375 -6.625 L 68.578125 -6.625 L 68.578125 0 L 66.328125 0 C 57.503906 0 49.546875 0.328125 42.453125 0.984375 C 35.367188 1.640625 28.445312 2.859375 21.6875 4.640625 C 23.9375 -10.566406 25.644531 -25.726562 26.8125 -40.84375 C 27.988281 -55.957031 28.578125 -70.785156 28.578125 -85.328125 C 28.578125 -89.835938 28.316406 -93.757812 27.796875 -97.09375 C 27.285156 -100.425781 26.234375 -103.21875 24.640625 -105.46875 C 23.046875 -107.71875 20.742188 -109.40625 17.734375 -110.53125 C 14.734375 -111.664062 10.75 -112.234375 5.78125 -112.234375 L 2.8125 -112.234375 L 2.8125 -118.84375 C 12.289062 -119.125 20.925781 -119.96875 28.71875 -121.375 C 36.519531 -122.789062 43.9375 -124.4375 50.96875 -126.3125 Z M 40.125 -159.546875 C 36.28125 -159.546875 33.039062 -160.738281 30.40625 -163.125 C 27.78125 -165.519531 26.46875 -169.207031 26.46875 -174.1875 C 26.46875 -176.34375 26.796875 -178.382812 27.453125 -180.3125 C 28.109375 -182.238281 29.070312 -183.925781 30.34375 -185.375 C 31.613281 -186.832031 33.140625 -187.984375 34.921875 -188.828125 C 36.703125 -189.671875 38.722656 -190.09375 40.984375 -190.09375 C 44.546875 -190.09375 47.640625 -188.828125 50.265625 -186.296875 C 52.898438 -183.765625 54.21875 -180.101562 54.21875 -175.3125 C 54.21875 -173.25 53.890625 -171.253906 53.234375 -169.328125 C 52.578125 -167.398438 51.660156 -165.707031 50.484375 -164.25 C 49.304688 -162.800781 47.847656 -161.65625 46.109375 -160.8125 C 44.378906 -159.96875 42.382812 -159.546875 40.125 -159.546875 Z M 40.125 -159.546875 "/></g></g></g><g fill="#213856" fill-opacity="1"><g transform="translate(707.036017, 392.757828)"><g><path d="M 40.125 -32.25 C 40.125 -26.894531 40.335938 -22.523438 40.765625 -19.140625 C 41.191406 -15.765625 42.0625 -13.160156 43.375 -11.328125 C 44.6875 -9.503906 46.5625 -8.265625 49 -7.609375 C 51.445312 -6.953125 54.640625 -6.625 58.578125 -6.625 L 64.640625 -6.625 L 64.640625 0 C 60.128906 0.1875 55.898438 0.328125 51.953125 0.421875 C 48.015625 0.515625 44.164062 0.703125 40.40625 0.984375 C 36.65625 1.265625 32.851562 1.660156 29 2.171875 C 25.15625 2.691406 21.070312 3.515625 16.75 4.640625 C 17.882812 -6.992188 18.941406 -18.9375 19.921875 -31.1875 C 20.910156 -43.4375 21.828125 -55.546875 22.671875 -67.515625 C 23.515625 -79.484375 24.238281 -91.097656 24.84375 -102.359375 C 25.457031 -113.628906 25.972656 -124.078125 26.390625 -133.703125 C 26.816406 -143.328125 27.144531 -151.941406 27.375 -159.546875 C 27.613281 -167.148438 27.734375 -173.296875 27.734375 -177.984375 C 27.734375 -183.523438 27.453125 -188.03125 26.890625 -191.5 C 26.328125 -194.976562 25.296875 -197.703125 23.796875 -199.671875 C 22.296875 -201.648438 20.207031 -202.988281 17.53125 -203.6875 C 14.851562 -204.394531 11.40625 -204.75 7.1875 -204.75 L 1.96875 -204.75 L 1.96875 -211.359375 C 6.476562 -211.546875 10.726562 -211.847656 14.71875 -212.265625 C 18.707031 -212.691406 22.601562 -213.210938 26.40625 -213.828125 C 30.207031 -214.441406 34.03125 -215.171875 37.875 -216.015625 C 41.726562 -216.859375 45.8125 -217.796875 50.125 -218.828125 C 49 -206.898438 47.96875 -194.597656 47.03125 -181.921875 C 46.09375 -169.253906 45.25 -156.722656 44.5 -144.328125 C 43.75 -131.941406 43.09375 -119.953125 42.53125 -108.359375 C 41.96875 -96.765625 41.519531 -86.0625 41.1875 -76.25 C 40.863281 -66.4375 40.601562 -57.726562 40.40625 -50.125 C 40.21875 -42.519531 40.125 -36.5625 40.125 -32.25 Z M 40.125 -32.25 "/></g></g></g><g fill="#213856" fill-opacity="1"><g transform="translate(775.045188, 392.757828)"><g><path d="M 67.171875 -22.8125 L 70.125 -22.8125 C 72.9375 -27.976562 76.007812 -33.65625 79.34375 -39.84375 C 82.675781 -46.039062 85.75 -52.472656 88.5625 -59.140625 C 91.382812 -65.804688 93.757812 -72.539062 95.6875 -79.34375 C 97.613281 -86.15625 98.578125 -92.800781 98.578125 -99.28125 C 98.578125 -103.5 98.101562 -107.507812 97.15625 -111.3125 C 96.21875 -115.113281 94.578125 -118.753906 92.234375 -122.234375 C 94.109375 -123.734375 96.21875 -124.785156 98.5625 -125.390625 C 100.914062 -126.003906 103.265625 -126.3125 105.609375 -126.3125 C 110.210938 -126.3125 113.660156 -124.878906 115.953125 -122.015625 C 118.253906 -119.148438 119.40625 -115.1875 119.40625 -110.125 C 119.40625 -105.425781 118.609375 -100.378906 117.015625 -94.984375 C 115.421875 -89.585938 113.378906 -84.117188 110.890625 -78.578125 C 108.398438 -73.035156 105.703125 -67.585938 102.796875 -62.234375 C 99.890625 -56.890625 97.164062 -51.914062 94.625 -47.3125 L 68.015625 0 C 65.390625 4.789062 62.503906 10 59.359375 15.625 C 56.210938 21.257812 52.945312 26.914062 49.5625 32.59375 C 46.1875 38.28125 42.738281 43.773438 39.21875 49.078125 C 35.695312 54.378906 32.148438 59.070312 28.578125 63.15625 C 25.015625 67.238281 21.492188 70.523438 18.015625 73.015625 C 14.546875 75.503906 11.21875 76.75 8.03125 76.75 C 2.675781 76.75 -1.171875 75.289062 -3.515625 72.375 C -5.867188 69.46875 -7.046875 65.851562 -7.046875 61.53125 C -7.046875 59.75 -6.90625 58.15625 -6.625 56.75 C -6.34375 55.34375 -5.867188 53.84375 -5.203125 52.25 C -3.796875 52.8125 -2.128906 53.328125 -0.203125 53.796875 C 1.710938 54.265625 3.753906 54.5 5.921875 54.5 C 10.609375 54.5 15.132812 53.160156 19.5 50.484375 C 23.863281 47.804688 28.109375 44.164062 32.234375 39.5625 C 36.367188 34.96875 40.382812 29.617188 44.28125 23.515625 C 48.175781 17.410156 52.050781 10.929688 55.90625 4.078125 L 24.5 -93.21875 C 23.375 -96.789062 22.175781 -99.796875 20.90625 -102.234375 C 19.644531 -104.671875 18.164062 -106.617188 16.46875 -108.078125 C 14.78125 -109.535156 12.832031 -110.59375 10.625 -111.25 C 8.425781 -111.90625 5.820312 -112.234375 2.8125 -112.234375 L 0.5625 -112.234375 L 0.5625 -118.84375 C 4.695312 -118.9375 8.285156 -119.191406 11.328125 -119.609375 C 14.378906 -120.035156 17.265625 -120.578125 19.984375 -121.234375 C 22.710938 -121.898438 25.507812 -122.65625 28.375 -123.5 C 31.238281 -124.34375 34.546875 -125.28125 38.296875 -126.3125 C 38.765625 -122.9375 39.28125 -119.742188 39.84375 -116.734375 C 40.414062 -113.734375 41.03125 -110.773438 41.6875 -107.859375 C 42.34375 -104.953125 43.09375 -101.992188 43.9375 -98.984375 C 44.78125 -95.984375 45.71875 -92.796875 46.75 -89.421875 Z M 67.171875 -22.8125 "/></g></g></g><g fill="#213856" fill-opacity="1"><g transform="translate(901.911158, 392.757828)"><g><path d="M 75.625 -88.859375 C 75.90625 -90.453125 76.160156 -92.019531 76.390625 -93.5625 C 76.628906 -95.113281 76.75 -96.59375 76.75 -98 C 76.75 -104.101562 75.175781 -109.007812 72.03125 -112.71875 C 68.882812 -116.425781 63.929688 -118.28125 57.171875 -118.28125 C 53.410156 -118.28125 50.03125 -117.738281 47.03125 -116.65625 C 44.03125 -115.582031 41.472656 -114.128906 39.359375 -112.296875 C 37.242188 -110.460938 35.625 -108.300781 34.5 -105.8125 C 33.375 -103.332031 32.8125 -100.726562 32.8125 -98 C 32.8125 -93.875 33.769531 -90.425781 35.6875 -87.65625 C 37.613281 -84.882812 40.078125 -82.46875 43.078125 -80.40625 C 46.085938 -78.34375 49.421875 -76.460938 53.078125 -74.765625 C 56.742188 -73.078125 60.363281 -71.296875 63.9375 -69.421875 C 67.40625 -67.546875 70.945312 -65.550781 74.5625 -63.4375 C 78.175781 -61.320312 81.460938 -58.851562 84.421875 -56.03125 C 87.378906 -53.21875 89.769531 -49.984375 91.59375 -46.328125 C 93.425781 -42.671875 94.34375 -38.398438 94.34375 -33.515625 C 94.34375 -29.097656 93.453125 -24.726562 91.671875 -20.40625 C 89.890625 -16.09375 87.023438 -12.195312 83.078125 -8.71875 C 79.140625 -5.25 74.023438 -2.457031 67.734375 -0.34375 C 61.441406 1.757812 53.835938 2.8125 44.921875 2.8125 C 39.566406 2.8125 34.660156 2.34375 30.203125 1.40625 C 25.742188 0.46875 21.914062 -0.890625 18.71875 -2.671875 C 15.53125 -4.453125 13.046875 -6.65625 11.265625 -9.28125 C 9.484375 -11.914062 8.59375 -14.878906 8.59375 -18.171875 C 8.59375 -23.234375 10.28125 -27.242188 13.65625 -30.203125 C 17.039062 -33.160156 21.3125 -34.734375 26.46875 -34.921875 L 26.46875 -32.25 C 26.46875 -23.707031 28.835938 -16.96875 33.578125 -12.03125 C 38.328125 -7.101562 44.644531 -4.640625 52.53125 -4.640625 C 55.4375 -4.640625 58.296875 -5.109375 61.109375 -6.046875 C 63.929688 -6.992188 66.46875 -8.40625 68.71875 -10.28125 C 70.96875 -12.15625 72.773438 -14.570312 74.140625 -17.53125 C 75.503906 -20.488281 76.1875 -23.984375 76.1875 -28.015625 C 76.1875 -32.054688 75.148438 -35.578125 73.078125 -38.578125 C 71.015625 -41.585938 68.410156 -44.21875 65.265625 -46.46875 C 62.117188 -48.71875 58.710938 -50.710938 55.046875 -52.453125 C 51.390625 -54.191406 47.96875 -55.859375 44.78125 -57.453125 L 39.84375 -59.984375 C 36.1875 -61.859375 32.878906 -63.734375 29.921875 -65.609375 C 26.960938 -67.492188 24.453125 -69.585938 22.390625 -71.890625 C 20.328125 -74.191406 18.726562 -76.863281 17.59375 -79.90625 C 16.46875 -82.957031 15.90625 -86.597656 15.90625 -90.828125 C 15.90625 -95.710938 16.632812 -99.957031 18.09375 -103.5625 C 19.550781 -107.175781 21.5 -110.296875 23.9375 -112.921875 C 26.375 -115.554688 29.1875 -117.742188 32.375 -119.484375 C 35.570312 -121.222656 38.859375 -122.582031 42.234375 -123.5625 C 45.617188 -124.550781 49 -125.253906 52.375 -125.671875 C 55.757812 -126.097656 58.859375 -126.3125 61.671875 -126.3125 C 65.992188 -126.3125 70.195312 -125.910156 74.28125 -125.109375 C 78.363281 -124.316406 82 -123.070312 85.1875 -121.375 C 88.382812 -119.6875 90.941406 -117.484375 92.859375 -114.765625 C 94.785156 -112.046875 95.75 -108.757812 95.75 -104.90625 C 95.75 -102.84375 95.328125 -100.847656 94.484375 -98.921875 C 93.640625 -96.992188 92.394531 -95.28125 90.75 -93.78125 C 89.113281 -92.28125 87.023438 -91.082031 84.484375 -90.1875 C 81.953125 -89.300781 79 -88.859375 75.625 -88.859375 Z M 75.625 -88.859375 "/></g></g></g><g fill="#e9f3ff" fill-opacity="1"><g transform="translate(112.510404, 444.273759)"><g><path d="M 167.609375 -101.859375 C 169.328125 -104.148438 171.257812 -105.007812 173.40625 -104.4375 C 175.5625 -103.863281 176.640625 -102.429688 176.640625 -100.140625 L 176.640625 -62.75 C 176.640625 -54.726562 172.628906 -50.71875 164.609375 -50.71875 L 4.296875 -50.71875 C 2.296875 -50.71875 1.003906 -51.789062 0.421875 -53.9375 C -0.148438 -56.082031 0.566406 -58.015625 2.578125 -59.734375 C 10.023438 -65.460938 14.820312 -70.976562 16.96875 -76.28125 C 19.125 -81.582031 20.203125 -88.242188 20.203125 -96.265625 L 20.203125 -224.34375 C 20.203125 -232.082031 19.125 -238.742188 16.96875 -244.328125 C 14.820312 -249.921875 10.023438 -255.4375 2.578125 -260.875 C 0.566406 -262.59375 -0.148438 -264.453125 0.421875 -266.453125 C 1.003906 -268.460938 2.296875 -269.46875 4.296875 -269.46875 L 125.0625 -269.46875 C 132.507812 -269.46875 140.03125 -268.609375 147.625 -266.890625 C 155.21875 -265.171875 161.59375 -262.304688 166.75 -258.296875 C 171.90625 -254.285156 174.484375 -248.695312 174.484375 -241.53125 C 174.484375 -233.507812 172.332031 -227.421875 168.03125 -223.265625 C 163.738281 -219.117188 158.441406 -216.828125 152.140625 -216.390625 C 145.835938 -215.960938 139.535156 -217.46875 133.234375 -220.90625 C 126.929688 -224.34375 121.773438 -229.5 117.765625 -236.375 C 112.609375 -245.539062 107.664062 -251.269531 102.9375 -253.5625 C 98.207031 -255.863281 92.40625 -257.15625 85.53125 -257.4375 C 84.664062 -249.414062 83.660156 -237.523438 82.515625 -221.765625 C 81.367188 -206.003906 80.65625 -187.523438 80.375 -166.328125 L 88.96875 -166.328125 C 97.84375 -166.328125 104.144531 -167.253906 107.875 -169.109375 C 111.601562 -170.972656 114.394531 -173.695312 116.25 -177.28125 C 118.113281 -180.863281 120.910156 -185.09375 124.640625 -189.96875 C 126.359375 -192.257812 128.289062 -193.1875 130.4375 -192.75 C 132.582031 -192.320312 133.65625 -190.675781 133.65625 -187.8125 L 133.65625 -132.796875 C 133.65625 -129.929688 132.582031 -128.285156 130.4375 -127.859375 C 128.289062 -127.429688 126.359375 -128.21875 124.640625 -130.21875 C 120.910156 -135.375 118.113281 -139.742188 116.25 -143.328125 C 114.394531 -146.910156 111.601562 -149.632812 107.875 -151.5 C 104.144531 -153.363281 97.84375 -154.296875 88.96875 -154.296875 L 80.375 -154.296875 C 80.65625 -140.535156 81.15625 -125.988281 81.875 -110.65625 C 82.59375 -95.332031 83.953125 -79.363281 85.953125 -62.75 L 118.1875 -62.75 C 127.070312 -62.75 134.519531 -64.96875 140.53125 -69.40625 C 146.550781 -73.851562 151.640625 -79.15625 155.796875 -85.3125 C 159.953125 -91.46875 163.890625 -96.984375 167.609375 -101.859375 Z M 167.609375 -101.859375 "/></g></g></g></svg>